<svg xmlns="http://www.w3.org/2000/svg" width="64" height="64" viewBox="0 0 64 64"><rect width="64" height="64" fill="#FFFFFF"/><g stroke="#C9D6E8" stroke-width="2" stroke-linecap="round"><line x1="9.625599999999999" y1="9.625599999999999" x2="9.625599999999999" y2="54.3744"/><line x1="9.625599999999999" y1="9.625599999999999" x2="54.3744" y2="9.625599999999999"/><line x1="18.57536" y1="9.625599999999999" x2="18.57536" y2="54.3744"/><line x1="9.625599999999999" y1="18.57536" x2="54.3744" y2="18.57536"/><line x1="27.52512" y1="9.625599999999999" x2="27.52512" y2="54.3744"/><line x1="9.625599999999999" y1="27.52512" x2="54.3744" y2="27.52512"/><line x1="36.47488" y1="9.625599999999999" x2="36.47488" y2="54.3744"/><line x1="9.625599999999999" y1="36.47488" x2="54.3744" y2="36.47488"/><line x1="45.424640000000004" y1="9.625599999999999" x2="45.424640000000004" y2="54.3744"/><line x1="9.625599999999999" y1="45.424640000000004" x2="54.3744" y2="45.424640000000004"/><line x1="54.3744" y1="9.625599999999999" x2="54.3744" y2="54.3744"/><line x1="9.625599999999999" y1="54.3744" x2="54.3744" y2="54.3744"/></g><rect x="9.625599999999999" y="9.625599999999999" width="8.949760000000001" height="8.949760000000001" fill="#F2B807"/><rect x="45.424640000000004" y="45.424640000000004" width="8.949760000000001" height="8.949760000000001" fill="#F2B807"/><circle cx="32" cy="32" r="13.424640000000002" fill="#16305C"/><path d="M24.616448,21.93152 Q19.246592,32 24.616448,42.06848" stroke="#FFFFFF" stroke-width="2" fill="none" stroke-dasharray="0.7 1.7" stroke-linecap="round"/><path d="M39.383552,21.93152 Q44.753408,32 39.383552,42.06848" stroke="#FFFFFF" stroke-width="2" fill="none" stroke-dasharray="0.7 1.7" stroke-linecap="round"/></svg>